<?xml version="1.0"?>
<svg xmlns="http://www.w3.org/2000/svg" viewBox="0 0 24 24">
    <path d="M 13 2 L 2 4 L 2 20 L 13 22 L 14 22 L 14 2 L 13 2 z M 15 5 L 15 7 C 15.167 6.996 15.33 7 15.5 7 C 17.354 7 18.71675 7.251 19.46875 7.5 C 18.71675 7.749 17.354 8 15.5 8 C 15.33 8 15.167 8.004 15 8 L 15 10 C 15.167 10.004 15.33 10 15.5 10 C 16.148 10 18.339 9.94825 20 9.40625 L 20 10.25 C 19.558 10.541 17.989 11 15.5 11 C 15.33 11 15.167 11.004 15 11 L 15 13 C 15.167 13.004 15.33 13 15.5 13 C 16.148 13 18.339 12.94825 20 12.40625 L 20 13.25 C 19.558 13.541 17.989 14 15.5 14 C 15.33 14 15.167 14.004 15 14 L 15 16 C 15.167 16.004 15.33 16 15.5 16 C 16.148 16 18.339 15.94825 20 15.40625 L 20 16.28125 C 19.538 16.57325 17.962 17 15.5 17 C 15.33 17 15.167 17.005 15 17 L 15 19 C 15.167 19.004 15.331 19 15.5 19 C 16.585 19 22 18.879 22 16.5 L 22 7.5 C 22 5.121 16.585 5 15.5 5 C 15.331 5 15.167 4.997 15 5 z M 8.25 7.90625 C 9.046 10.56725 9.80775 13.24325 10.59375 15.90625 C 10.04475 15.87025 9.51275 15.83025 8.96875 15.78125 C 8.82375 15.18725 8.657 14.592 8.5 14 C 7.771 13.998 7.0395 13.9735 6.3125 13.9375 C 6.1725 14.5005 6.021 15.064 5.875 15.625 C 5.409 15.589 4.963 15.56225 4.5 15.53125 C 5.194 13.02925 5.90475 10.53325 6.59375 8.03125 C 7.14775 7.99125 7.694 7.94925 8.25 7.90625 z M 7.375 9.34375 C 7.215 10.47175 6.865 11.54425 6.625 12.65625 C 7.148 12.66125 7.6625 12.6845 8.1875 12.6875 C 7.9165 11.5755 7.589 10.46975 7.375 9.34375 z"/>
</svg>
