<?xml version="1.0" encoding="utf-8"?>
<!-- Generator: Adobe Illustrator 22.1.0, SVG Export Plug-In . SVG Version: 6.00 Build 0)  -->
<svg version="1.1" id="Layer_1" xmlns="http://www.w3.org/2000/svg" xmlns:xlink="http://www.w3.org/1999/xlink" x="0px" y="0px"
	 viewBox="0 0 186.2 215" style="enable-background:new 0 0 186.2 215;" xml:space="preserve">
<style type="text/css">
	.st0{enable-background:new    ;}
	.st1{fill:#FFFFFF;}
</style>
<title>c#</title>
<g id="Layer_2_1_">
	<g id="Layer_1-2">
		<polygon points="0.5,161 0.5,54 93.1,0.6 185.7,54 185.7,161 93.1,214.5 		"/>
		<path d="M93.1,1.1l92.1,53.2v106.4l-92.1,53.2L1,160.7V54.3L93.1,1.1 M93.1,0L0,53.8v107.5L93.1,215l93.1-53.8V53.8L93.1,0z"/>
		<g class="st0">
			<path class="st1" d="M98.7,155.9c-4.2,2.1-13.6,4.3-25.9,4.3c-34.9,0-52.9-21.7-52.9-50.5C19.8,75.2,44.4,56,75,56
				c11.8,0,20.8,2.4,24.9,4.5l-4.6,18.1c-4.7-2-11.1-3.8-19.2-3.8c-18.1,0-32.2,10.9-32.2,33.4c0,20.3,12,33,32.4,33
				c6.9,0,14.5-1.5,19-3.3L98.7,155.9z"/>
			<path class="st1" d="M117.6,158.7l3.9-26.8h-12.1v-13.8h14.5l2.4-16.8h-12.7v-14h14.8l3.7-26.1h13.3l-3.8,26.1h13.6l3.9-26.1
				h13.3l-3.9,26.1h12v14h-14.1l-2.4,16.8h12.4v13.8H162l-3.8,26.8h-13.5l3.8-26.8h-13.6l-3.8,26.8H117.6z M150.9,118.1l2.4-16.8
				h-13.6l-2.4,16.8H150.9z"/>
		</g>
	</g>
</g>
</svg>
