<svg xmlns="http://www.w3.org/2000/svg" viewBox="0 0 384 512"><defs><style>.cls-1{fill:#fff;}</style></defs><title>Download-white</title><g id="Layer_2" data-name="Layer 2"><g id="Layer_1-2" data-name="Layer 1"><path class="cls-1" d="M224,136V0H24A23.94,23.94,0,0,0,0,24V488a23.94,23.94,0,0,0,24,24H360a23.94,23.94,0,0,0,24-24V160H248A24.07,24.07,0,0,1,224,136Zm76.45,211.36L204,443.06a17.05,17.05,0,0,1-24,0l-96.42-95.7C73.42,337.29,80.54,320,94.82,320H160V240a16,16,0,0,1,16-16h32a16,16,0,0,1,16,16v80h65.18c14.28,0,21.4,17.29,11.27,27.36ZM377,105,279.1,7a24,24,0,0,0-17-7H256V128H384v-6.1A23.92,23.92,0,0,0,377,105Z"/></g></g></svg>