<?xml version="1.0" encoding="utf-8"?>
<!-- Generator: Adobe Illustrator 22.1.0, SVG Export Plug-In . SVG Version: 6.00 Build 0)  -->
<svg version="1.1" id="Layer_1" xmlns="http://www.w3.org/2000/svg" xmlns:xlink="http://www.w3.org/1999/xlink" x="0px" y="0px"
	 viewBox="0 0 331 331" style="enable-background:new 0 0 331 331;" xml:space="preserve">
<style type="text/css">
	.st0{enable-background:new    ;}
	.st1{fill:#FFFFFF;}
</style>
<title>illustrator</title>
<g id="Layer_2_1_">
	<g id="Layer_1-2">
		<rect x="0.5" y="0.5" width="330" height="330"/>
		<path d="M330,1v329H1V1H330 M331,0H0v331h331V0z"/>
		<g class="st0">
			<path class="st1" d="M123,200.9l-9.6,34.6H81.8L123,100.7h40l41.8,134.8H172l-10.4-34.6H123z M157.2,178.1l-8.4-28.6
				c-2.4-8-4.8-18-6.8-26h-0.4c-2,8-4,18.2-6.2,26l-8,28.6H157.2z"/>
		</g>
		<g class="st0">
			<path class="st1" d="M243.8,110.5c0,8.4-6.4,15.2-16.4,15.2c-9.6,0-16-6.8-15.8-15.2c-0.2-8.8,6.2-15.4,16-15.4
				S243.6,101.7,243.8,110.5z M212.4,235.5v-97.8h30.4v97.8H212.4z"/>
		</g>
	</g>
</g>
</svg>
