<svg xmlns="http://www.w3.org/2000/svg" viewBox="0 0 2484.56 2233.83"><defs><style>.cls-1{fill:#fff;}</style></defs><title>react</title><g id="Layer_2" data-name="Layer 2"><g id="Layer_1-2" data-name="Layer 1"><path class="cls-1" d="M0,1112.9c0,187.64,183.22,362.79,472.08,461.53-57.68,290.39-10.33,524.45,147.81,615.65,162.54,93.75,404.7,28.86,634.54-172.06,224,192.8,450.47,268.68,608.47,177.21,162.4-94,211.78-343.94,152.5-643.4,300.87-99.46,469.16-248.82,469.16-438.93C2484.56,929.61,2301,771.06,2016,673c63.81-311.83,9.74-540.21-155-635.17C1702.32-53.78,1473.26,26,1245.92,223.86,1009.41,13.87,782.61-50.24,618.1,45c-158.63,91.82-203.89,330.15-146,625.9C193,768.2,0,930.36,0,1112.9Z"/><path d="M1955.69,770.37q-35.24-12.07-71-22.38,5.92-24.12,11-48.44c53.77-261,18.62-471.27-101.44-540.49-115.1-66.38-303.35,2.83-493.48,168.28q-28.11,24.51-54.94,50.42-18-17.22-36.56-33.77c-199.26-176.92-399-251.47-518.92-182-115,66.57-149,264.25-100.65,511.6q7.23,36.75,16.31,73.08c-28.26,8-55.55,16.58-81.67,25.69C290.68,853.75,141.49,981.4,141.49,1113.8c0,136.75,160.15,273.91,403.48,357.07q29.6,10.07,59.66,18.65-9.76,39.13-17.33,78.78c-46.15,243-10.11,436,104.58,502.2,118.47,68.31,317.29-1.9,510.89-171.13q22.95-20.07,46-42.44,29.07,28,59.65,54.42c187.53,161.37,372.74,226.53,487.33,160.2,118.36-68.51,156.81-275.84,106.87-528.08q-5.7-28.9-13.23-59,21-6.18,41-12.81c253-83.8,417.53-219.3,417.53-357.87,0-132.88-154-261.39-392.31-343.43Z"/><path class="cls-1" d="M1900.82,1382.2q-18.09,6-37.06,11.59c-27.93-88.4-65.62-182.41-111.73-279.53,44-94.82,80.24-187.61,107.38-275.45,22.57,6.54,44.49,13.42,65.6,20.7,204.19,70.28,328.73,174.21,328.73,254.29,0,85.29-134.51,196-352.91,268.4Zm-90.62,179.58c22.08,111.53,25.23,212.38,10.6,291.21-13.14,70.84-39.57,118.06-72.24,137-69.54,40.25-218.25-12.07-378.62-150.07q-27.57-23.73-55.48-50.59c62.17-68,124.31-147.06,185-234.85,106.68-9.46,207.45-24.94,298.85-46.06q6.73,27.24,11.94,53.38ZM893.73,1983c-67.93,24-122,24.67-154.75,5.82-69.6-40.14-98.53-195.11-59.07-403Q687,1549,696,1512.62c90.37,20,190.42,34.37,297.35,43,61,85.91,125,164.87,189.4,234q-20.54,19.86-42,38.71c-85.61,74.84-171.4,127.92-247,154.63ZM575.45,1381.68C467.86,1344.9,379,1297.11,318.1,1245c-54.72-46.87-82.36-93.4-82.36-131.16,0-80.34,119.79-182.83,319.58-252.48q37.6-13.07,75.94-23.9c27.62,89.81,63.84,183.71,107.55,278.67-44.28,96.37-81,191.77-108.89,282.64Q602.49,1390.87,575.45,1381.68Zm106.7-726.24c-41.47-211.94-13.94-371.81,55.37-411.92,73.82-42.73,237.05,18.2,409.09,171,11,9.76,22,20,33.11,30.56-64.1,68.84-127.45,147.21-188,232.61C888,687.27,788.64,702.72,697.31,723.41q-8.43-33.79-15.16-68Zm951.79,235q-32.36-55.89-67.1-110.35c70.41,8.88,137.85,20.7,201.19,35.16-19,61-42.71,124.68-70.62,190q-30.59-58-63.47-114.81ZM1245.8,512.4c43.47,47.1,87,99.7,129.85,156.76q-130.34-6.17-260.79-.06c42.87-56.53,86.78-109.05,130.94-156.7ZM855.17,891.1q-32.48,56.32-62.28,114.11C765.44,940.1,742,876.09,722.77,814.28c63-14.09,130.09-25.61,200-34.35Q887.7,834.71,855.17,891.1Zm69.65,563.29c-72.26-8.07-140.41-19-203.35-32.7C741,1358.79,765,1293.4,793,1226.9q29.94,57.81,62.56,114.17Q888.84,1398.55,924.82,1454.39Zm323.59,267.46c-44.68-48.21-89.24-101.53-132.76-158.88q63.36,2.49,129.09,2.5,67.47,0,133.2-3C1335,1620.9,1291.59,1674.3,1248.41,1721.85Zm449.9-498.34c29.49,67.22,54.35,132.26,74.1,194.1-64,14.6-133.05,26.36-205.83,35.09q35-55.47,67.74-112.28,33.29-57.74,64-116.91Zm-145.65,69.82q-50.13,87.09-105.86,170.79c-65.46,4.68-133.11,7.09-202.06,7.09-68.66,0-135.45-2.14-199.77-6.31q-57.13-83.45-107.84-171.05Q886.7,1206.78,843,1116.06q43.57-90.68,93.86-177.88v0q50.24-87.16,107-170.33c65.63-5,132.91-7.56,200.92-7.56,68.32,0,135.69,2.62,201.29,7.62q56.14,83,106.32,169.75,50.43,87,95.12,177-44.2,91-94.81,178.61ZM1747.11,240.72c73.89,42.61,102.63,214.45,56.2,439.8q-4.56,22-9.92,43.87c-91.54-21.12-191-36.85-295-46.61-60.64-86.34-123.46-164.84-186.52-232.78q24.78-23.91,50.74-46.55c162.9-141.77,315.15-197.74,384.52-157.73Z"/><path d="M1244.74,916.76c108.83,0,197,88.22,197,197s-88.21,197-197,197-197-88.22-197-197,88.22-197,197-197"/></g></g></svg>