<?xml version="1.0" encoding="utf-8"?>
<!-- Svg Vector Icons : http://www.onlinewebfonts.com/icon -->
<!DOCTYPE svg PUBLIC "-//W3C//DTD SVG 1.1//EN" "http://www.w3.org/Graphics/SVG/1.1/DTD/svg11.dtd">
<svg version="1.1" xmlns="http://www.w3.org/2000/svg" xmlns:xlink="http://www.w3.org/1999/xlink" x="0px" y="0px" viewBox="0 0 1000 1000" enable-background="new 0 0 1000 1000" xml:space="preserve">
<metadata> Svg Vector Icons : http://www.onlinewebfonts.com/icon </metadata>
<g><path d="M975.5,989.6c-317.4-0.5-634.7-0.4-952.1-0.6c-4.2,0-10.1,3.7-13-3.1c34.7-3.5,68.1-13.2,101.6-21.8c157.7-40.6,312.6-90.5,465.7-146.2c135.9-49.5,268.8-105.7,397.2-172.3c4.7-2.4,8.9-6.5,14.9-5.6c0,111.4-0.2,222.7,0.3,334.1C990,985.6,988.7,989.6,975.5,989.6z M563.8,409c-60.1,8.5-120.3,16.2-180.9,21.2c-28,2.3-56.4,4.2-84.4-1.7c-39.7-8.4-47.9-33.8-20.6-64.1c25.5-28.3,57.5-47.9,90.3-66.1c101.9-56.6,210-98.5,320.7-134.2c94-30.3,189.8-53.9,286.4-74.4c4.7-1,9.7-0.7,14.5-1c0,89.2,0,178.4,0,267.6c-55.1,4.3-110.1,10.1-165,17.5C737.8,385.3,650.7,396.7,563.8,409z M231.1,255.2C159.3,286,88.8,319.8,20.6,358.3c-3.2,1.8-6.9,3-10.3,4.4c0-113.1,0.2-226.3-0.3-339.4C10,12.2,12.2,10,23.4,10c308,0.4,615.9,0.3,923.9,0.3c-25.8,11.7-53.8,15.4-80.7,23C650.3,94.5,437.7,166.4,231.1,255.2z M312.2,580c79.1-10.4,157.8-23.1,237.1-31.6c54-5.8,107.9-12,162.3-12.3c19.2-0.1,37.9,2.8,55.9,9.6c24.7,9.4,32.7,28.6,20.2,51.9c-13.5,25.2-36,41.8-59.1,57.3c-78.3,52.4-165.4,86.2-252.8,119.3c-120,45.5-243.4,79.7-368.2,108.6c-32.1,7.4-64.1,16.2-97.3,18.4c0-94.6,0-189.3,0-283.9c28.5-3.2,57.1-6,85.6-9.6C168.1,598.6,240.2,589.5,312.2,580z M51.9,807.3L51.9,807.3c-3.5-0.3-5.8-1.9-7.1-4.3C46.1,805.4,48.4,807.1,51.9,807.3z M43,710.3c0.1,5.8,1.6,11.2,8.6,11.6C44.6,721.5,43.1,716.1,43,710.3c-0.1-6.6,2.4-11.6,9.7-13l0,0C45.3,698.7,42.9,703.6,43,710.3z M85.4,807.8L85.4,807.8c-7.1-1.7-9.8-6.6-9.6-13.2C75.6,801.2,78.3,806.1,85.4,807.8z M85.4,697.6c-7.2,0.1-9.7,6.1-9.6,12.7c0.1,6.5,2.5,11.6,9.9,12.9l0,0c-7.4-1.3-9.8-6.4-9.9-12.9C75.7,703.8,78.2,697.7,85.4,697.6z"/></g>
</svg>